<svg version="1.1" xmlns="http://www.w3.org/2000/svg" viewBox="0 0 1000 158.1287994" xml:space="preserve">
<g>
  <path fill="#FFD800" d="M63.4289551,0h-31.722908v31.6297264h31.722908V0z"/>
  <path fill="#FFD800" d="M190.3040924,0h-31.7228851v31.6297264h31.7228851V0z"/>
  <path fill="#FFAF00" d="M95.1415787,31.6322975H31.7060471v31.6297264h63.4355316V31.6322975z"/>
  <path fill="#FFAF00" d="M190.3111115,31.6322975h-63.4352951v31.6297264h63.4352951V31.6322975z"/>
  <path fill="#FF8205" d="M190.2901001,63.2470818H31.7060471v31.6298485h158.5840454V63.2470818z"/>
  <path fill="#FA500F" d="M63.4289551,94.8793793h-31.722908v31.6292572h31.722908V94.8793793z"/>
  <path fill="#FA500F" d="M126.8758163,94.8793793h-31.723259v31.6292572h31.723259V94.8793793z"/>
  <path fill="#FA500F" d="M190.3040924,94.8793793h-31.7228851v31.6292572h31.7228851V94.8793793z"/>
  <path fill="#E10500" d="M95.1481171,126.4981232H0v31.6306763h95.1481171V126.4981232z"/>
  <path fill="#E10500" d="M222.0340118,126.4981232h-95.1581955v31.6306763h95.1581955V126.4981232z"/>
</g>
<path d="M983.5670166,141.9409943V17.7604599H1000v124.1805344H983.5670166z"/>
<path d="M851.4351807,141.9409943l47.6900024-124.1805344h17.7045288l50.8238525,124.1805344h-18.7202759l-14.4854126-37.6101379h-51.9249878l-13.6377563,37.6101379H851.4351807z M887.2669067,90.9472046h42.0994873l-12.9605713-34.3910179c-3.9534912-10.4471092-6.8900757-19.0308266-8.8095703-25.7507935c-1.5809937,7.9624252-3.8123169,15.8683395-6.6916504,23.7178612L887.2669067,90.9472046z"/>
<path d="M785.5256958,141.9409943V17.7604599h15.2478027v124.1805344H785.5256958z"/>
<path d="M747.9985352,130.8428192c-5.6477051,4.8000641-11.0969238,8.1884766-16.348938,10.1652527c-5.1946411,1.9756012-10.7852173,2.9645691-16.7715454,2.9645691c-9.8827515,0-17.4780884-2.4006195-22.7860107-7.2006836c-5.3079834-4.8561096-7.9631348-11.0397873-7.9631348-18.5510406c0-4.4042435,0.9889526-8.4137115,2.9657593-12.027832c2.0328369-3.6706238,4.6587524-6.6071701,7.876709-8.8095245c3.2763062-2.2023544,6.946106-3.868309,11.0129395-4.9977417c2.9926147-0.7905884,7.5100708-1.5529251,13.5524902-2.2870026c12.3113403-1.468277,21.3743286-3.2188873,27.1914062-5.2518158c0.0560303-2.0894394,0.0840454-3.4165573,0.0840454-3.9812088c0-6.2118225-1.4396973-10.5883942-4.3201904-13.1295853c-3.8963013-3.4446945-9.6841431-5.16716-17.3647461-5.16716c-7.1714478,0-12.4794312,1.2705994-15.9250488,3.8117905c-3.3883667,2.4848022-5.901123,6.9177628-7.5380859,13.2990112l-14.9092407-2.0329285c1.3555298-6.3812485,3.586853-11.5201492,6.692749-15.4165955c3.1057739-3.9530754,7.5953369-6.9742775,13.4683838-9.0637207c5.8718872-2.1458397,12.6767578-3.2188797,20.4134521-3.2188797c7.680481,0,13.9202881,0.903614,18.7202759,2.7107353c4.8001099,1.8069992,8.3297729,4.0941162,10.5891113,6.8611298c2.2581177,2.7107353,3.8391113,6.1554298,4.7427979,10.3343163c0.5079956,2.5975952,0.7624512,7.2847443,0.7624512,14.061348v20.3295517c0,14.1745987,0.3106079,23.1535568,0.9318237,26.9366226c0.6784058,3.7270203,1.9767456,7.3127594,3.8963013,10.7584076h-15.9250488C749.4662476,138.7767639,748.4504395,135.0777588,747.9985352,130.8428192z M746.7282104,96.7906494c-5.5344849,2.2588654-13.8362427,4.1788788-24.9040527,5.7600708c-6.2689209,0.9035034-10.7011719,1.9200211-13.2991333,3.0494537c-2.5979004,1.1294327-4.6027222,2.7952652-6.0144043,4.9976196c-1.4116211,2.1459579-2.117981,4.54599-2.117981,7.2004471c0,4.0656357,1.5248413,7.4540482,4.574646,10.1640778c3.105896,2.7112045,7.6233521,4.0667953,13.5524902,4.0667953c5.8731689,0,11.0970459-1.2715302,15.6717529-3.8122559c4.5735474-2.5979462,7.93396-6.1276321,10.0800171-10.5879288c1.6370239-3.4451599,2.456665-8.5275497,2.456665-15.2476349V96.7906494z"/>
<path d="M631.3668213,141.9398346V51.9807701h13.7229614v13.6377296c3.5004883-6.3812408,6.7196045-10.5882683,9.656189-12.6213188c2.9925537-2.0329323,6.2688599-3.0494576,9.8265381-3.0494576c5.1386719,0,10.3614502,1.6376953,15.6705933,4.9130859l-5.2518921,14.1459961c-3.7270508-2.2023544-7.4541016-3.3035355-11.1810913-3.3035355c-3.3323364,0-6.3250122,1.0164108-8.9789429,3.0494614c-2.6539917,1.9764175-4.5467529,4.7435455-5.6757812,8.3012619c-1.6942139,5.4212341-2.5407715,11.3506088-2.5407715,17.7883682v47.0974731H631.3668213z"/>
<path d="M616.5346069,128.3044281l2.2020874,13.4684296c-4.2921753,0.9037323-8.1324463,1.3555908-11.520874,1.3555908c-5.5333252,0-9.8254395-0.8757019-12.8752441-2.6259613c-3.048645-1.7514191-5.1947021-4.0375977-6.4370728-6.8620605c-1.2423096-2.8793488-1.8634644-8.8937225-1.8634644-18.0420914V63.8424454h-11.182251V51.9835739h11.182251V29.705616l15.1625366-9.1482544v31.4262123h15.3320312v11.8588715h-15.3320312v52.6029968c0,4.3477249,0.253479,7.1429901,0.7613525,8.3853378c0.5651245,1.2434998,1.4408569,2.231308,2.6259155,2.9657288c1.2423706,0.7332764,2.9937744,1.101059,5.2520142,1.101059C611.5360107,128.8975677,613.767334,128.6990814,616.5346069,128.3044281z"/>
<path d="M490.4077454,115.0872726l15.0774231-2.3717804c0.8476562,6.0425262,3.1910706,10.6732864,7.031311,13.8923874c3.8963623,3.2179565,9.3175659,4.8280945,16.2637329,4.8280945c7.0021973,0,12.1968994-1.4116516,15.5853271-4.2361069c3.3884277-2.8793411,5.0825806-6.2397308,5.0825806-10.0800171c0-3.4443359-1.4968262-6.1549606-4.4894409-8.1315002c-2.0888672-1.3552475-7.284729-3.0775909-15.5864868-5.1670303c-11.1810913-2.8236465-18.9456787-5.2518158-23.2938843-7.2848663c-4.2921448-2.089325-7.5673218-4.9412231-9.82547-8.5553436c-2.2033081-3.6706314-3.3043518-7.7083511-3.3043518-12.11306c0-4.0094681,0.903717-7.7083511,2.7111816-11.0965347c1.8635254-3.444809,4.3762207-6.2965889,7.5381165-8.5554581c2.3726196-1.7505989,5.5917053-3.2188759,9.6573181-4.404705c4.1217041-1.2423401,8.5270996-1.8636284,13.2139282-1.8636284c7.0593872,0,13.243042,1.0165253,18.5510254,3.0494576c5.3652344,2.0330505,9.3175659,4.8000603,11.8582764,8.3012695c2.5419312,3.4448128,4.2921753,8.0754509,5.2519531,13.8919182l-14.9080811,2.0329361c-0.6772461-4.6305237-2.6539917-8.2447586-5.9291992-10.8424683c-3.2190552-2.5975914-7.7937622-3.8964424-13.7229004-3.8964424c-7.0021973,0-11.9996338,1.1576881-14.9933472,3.47295c-2.9925842,2.3153763-4.489502,5.0259933-4.489502,8.1318436c0,1.9765396,0.6211853,3.7554016,1.8635254,5.336586c1.2423401,1.6375732,3.1911011,2.9929504,5.8450317,4.0658646c1.5249634,0.5647736,6.0144043,1.8636322,13.4684448,3.8965607c10.786438,2.8800354,18.2965698,5.2518158,22.5326538,7.1153259c4.2909546,1.8071136,7.6513672,4.4612198,10.0800171,7.9624252c2.4274292,3.5012054,3.6417847,7.8495178,3.6417847,13.0449295c0,5.0826263-1.4957275,9.8826828-4.489502,14.4001923c-2.9365234,4.461441-7.1995239,7.9339294-12.7900391,10.4186096c-5.5905151,2.4286346-11.9154663,3.6429596-18.9749146,3.6429596c-11.6889648,0-20.6118469-2.4286346-26.7675171-7.2847443C495.998291,131.8306274,492.1019592,124.6311111,490.4077454,115.0872726z"/>
<path d="M457.9725952,35.2947502V17.7604599h15.2478638v17.5342903H457.9725952z M457.9725952,141.9409943V51.9820595h15.2478638v89.9589386H457.9725952z"/>
<path d="M314.8103027,141.9409943V17.7604599h24.7347107l29.3935242,87.9256516c2.710022,8.1883545,4.6867981,14.3154144,5.9291382,18.3810501c1.4116516-4.5175018,3.6137695-11.1527023,6.6075439-19.9057159l29.7320862-86.4009857h22.107605v124.1805344h-15.8398132V38.0053673l-36.0851135,103.9356232H366.565918L330.6501465,36.2266235v105.7143707H314.8103027z"/>
</svg>
